<svg xmlns="http://www.w3.org/2000/svg" width="2560" height="1440" viewBox="0 0 2560 1440">
  <defs>
    <linearGradient id="base" x1="0" y1="0" x2="1" y2="1">
      <stop offset="0" stop-color="#090d25"/>
      <stop offset=".48" stop-color="#12163a"/>
      <stop offset="1" stop-color="#200f31"/>
    </linearGradient>
    <linearGradient id="violetVeil" x1="0" y1="0" x2=".9" y2="1">
      <stop offset="0" stop-color="#a78bfa" stop-opacity="0"/>
      <stop offset=".22" stop-color="#a78bfa" stop-opacity=".11"/>
      <stop offset=".5" stop-color="#6d5dfc" stop-opacity=".42"/>
      <stop offset=".78" stop-color="#a78bfa" stop-opacity=".1"/>
      <stop offset="1" stop-color="#a78bfa" stop-opacity="0"/>
    </linearGradient>
    <linearGradient id="cyanVeil" x1="0" y1="0" x2="1" y2=".85">
      <stop offset="0" stop-color="#55d8ff" stop-opacity="0"/>
      <stop offset=".36" stop-color="#55d8ff" stop-opacity=".08"/>
      <stop offset=".55" stop-color="#55d8ff" stop-opacity=".36"/>
      <stop offset=".76" stop-color="#55d8ff" stop-opacity=".06"/>
      <stop offset="1" stop-color="#55d8ff" stop-opacity="0"/>
    </linearGradient>
    <linearGradient id="roseVeil" x1=".2" y1="0" x2=".82" y2="1">
      <stop offset="0" stop-color="#f48abf" stop-opacity="0"/>
      <stop offset=".52" stop-color="#f48abf" stop-opacity=".26"/>
      <stop offset="1" stop-color="#f48abf" stop-opacity="0"/>
    </linearGradient>
    <filter id="soft" x="-20%" y="-20%" width="140%" height="140%"><feGaussianBlur stdDeviation="32"/></filter>
    <filter id="finer" x="-20%" y="-20%" width="140%" height="140%"><feGaussianBlur stdDeviation="12"/></filter>
    <radialGradient id="vignette" cx=".5" cy=".44" r=".78"><stop offset=".56" stop-color="#000" stop-opacity="0"/><stop offset="1" stop-color="#02030d" stop-opacity=".62"/></radialGradient>
  </defs>
  <rect width="2560" height="1440" fill="url(#base)"/>
  <g filter="url(#soft)">
    <path d="M-210 1160C190 1000 220 640 630 362S1265-44 1550-176l430 220c-465 182-676 342-956 614S470 1130-190 1380Z" fill="url(#violetVeil)"/>
    <path d="M660 1510c25-435 384-590 600-910S1500 85 2090-125l380 170c-521 205-746 444-929 755s-311 613-502 780Z" fill="url(#cyanVeil)"/>
    <path d="M1210 1510c50-325 382-472 584-706s306-487 586-686l390 200c-341 216-454 463-675 722s-455 417-602 616Z" fill="url(#roseVeil)"/>
  </g>
  <g filter="url(#finer)" fill="none" stroke-linecap="round">
    <path d="M-40 1044C319 891 392 558 721 345S1310 8 1590-126" stroke="#c3b8ff" stroke-opacity=".26" stroke-width="13"/>
    <path d="M809 1434c106-360 390-528 584-791S1642 154 2185-46" stroke="#8ae7ff" stroke-opacity=".23" stroke-width="10"/>
    <path d="M1320 1460c148-260 393-391 581-609s265-413 529-611" stroke="#ffb2d5" stroke-opacity=".14" stroke-width="8"/>
  </g>
  <rect width="2560" height="1440" fill="url(#vignette)"/>
</svg>
